<?xml version="1.0" encoding="UTF-8"?>
<!DOCTYPE svg PUBLIC "-//W3C//DTD SVG 1.1//EN" "http://www.w3.org/Graphics/SVG/1.1/DTD/svg11.dtd">
<svg xmlns="http://www.w3.org/2000/svg" version="1.1" width="535px" height="466px" style="shape-rendering:geometricPrecision; text-rendering:geometricPrecision; image-rendering:optimizeQuality; fill-rule:evenodd; clip-rule:evenodd" xmlns:xlink="http://www.w3.org/1999/xlink">
<g><path style="opacity:0.306" fill="#5e616d" d="M 355.5,62.5 C 316.5,61.1667 277.5,61.1667 238.5,62.5C 238.918,61.7784 239.584,61.2784 240.5,61C 277.833,60.3333 315.167,60.3333 352.5,61C 353.737,61.2321 354.737,61.7321 355.5,62.5 Z"/></g>
<g><path style="opacity:0.863" fill="#bfc4d3" d="M 355.5,62.5 C 358.198,65.3745 361.198,68.0412 364.5,70.5C 364.833,73.1667 365.167,75.8333 365.5,78.5C 364.883,78.3893 364.383,78.056 364,77.5C 363.51,78.7932 363.343,80.1266 363.5,81.5C 363.543,74.9274 360.543,70.2608 354.5,67.5C 353.313,65.0246 351.313,64.0246 348.5,64.5C 314.336,63.3358 280.002,63.1691 245.5,64C 238.726,65.9474 234.059,70.1141 231.5,76.5C 230.833,76.5 230.5,76.8333 230.5,77.5C 229.883,77.6107 229.383,77.944 229,78.5C 228.5,113.832 228.333,149.165 228.5,184.5C 227.336,149.002 227.169,113.336 228,77.5C 229.591,75.0734 230.425,72.4067 230.5,69.5C 233.207,67.1568 235.874,64.8235 238.5,62.5C 277.5,61.1667 316.5,61.1667 355.5,62.5 Z"/></g>
<g><path style="opacity:0.541" fill="#686c77" d="M 348.5,65.5 C 348.5,65.1667 348.5,64.8333 348.5,64.5C 351.313,64.0246 353.313,65.0246 354.5,67.5C 352.421,67.0293 350.421,66.3627 348.5,65.5 Z"/></g>
<g><path style="opacity:0.408" fill="#575865" d="M 238.5,62.5 C 235.874,64.8235 233.207,67.1568 230.5,69.5C 231.92,65.7833 234.587,63.4499 238.5,62.5 Z"/></g>
<g><path style="opacity:0.282" fill="#4b4c58" d="M 355.5,62.5 C 359.767,63.7684 362.767,66.4351 364.5,70.5C 361.198,68.0412 358.198,65.3745 355.5,62.5 Z"/></g>
<g><path style="opacity:0.462" fill="#7c838f" d="M 231.5,76.5 C 231.168,112.671 231.502,148.671 232.5,184.5C 233.674,185.514 234.34,186.847 234.5,188.5C 232.926,188.063 231.759,187.063 231,185.5C 230.536,186.094 230.369,186.761 230.5,187.5C 228.952,187.179 228.285,186.179 228.5,184.5C 229.117,184.389 229.617,184.056 230,183.5C 230.5,148.168 230.667,112.835 230.5,77.5C 230.5,76.8333 230.833,76.5 231.5,76.5 Z"/></g>
<g><path style="opacity:0.404" fill="#43464f" d="M 241.5,82.5 C 252.492,80.3223 256.158,84.489 252.5,95C 247.889,97.1155 243.389,96.9488 239,94.5C 238.333,91.5 238.333,88.5 239,85.5C 239.698,84.3094 240.531,83.3094 241.5,82.5 Z"/></g>
<g><path style="opacity:0.596" fill="#5a5e67" d="M 343.5,82.5 C 354.492,80.3223 358.158,84.489 354.5,95C 341.714,98.7172 338.048,94.5505 343.5,82.5 Z"/></g>
<g><path style="opacity:1" fill="#d3dcf2" d="M 343.5,84.5 C 346.833,84.5 350.167,84.5 353.5,84.5C 353.5,87.8333 353.5,91.1667 353.5,94.5C 350.167,94.5 346.833,94.5 343.5,94.5C 343.5,91.1667 343.5,87.8333 343.5,84.5 Z"/></g>
<g><path style="opacity:0.812" fill="#b2b9c9" d="M 240.5,84.5 C 244.167,84.5 247.833,84.5 251.5,84.5C 251.5,87.8333 251.5,91.1667 251.5,94.5C 247.833,94.5 244.167,94.5 240.5,94.5C 240.5,91.1667 240.5,87.8333 240.5,84.5 Z"/></g>
<g><path style="opacity:1" fill="#d9e3fb" d="M 241.5,85.5 C 244.5,85.5 247.5,85.5 250.5,85.5C 250.5,88.1667 250.5,90.8333 250.5,93.5C 247.5,93.5 244.5,93.5 241.5,93.5C 241.5,90.8333 241.5,88.1667 241.5,85.5 Z"/></g>
<g><path style="opacity:0.09" fill="#3c3e48" d="M 348.5,64.5 C 348.5,64.8333 348.5,65.1667 348.5,65.5C 313.832,65.3333 279.165,65.5 244.5,66C 240.187,67.3062 236.687,69.8062 234,73.5C 232.519,110.439 232.019,147.439 232.5,184.5C 231.502,148.671 231.168,112.671 231.5,76.5C 234.059,70.1141 238.726,65.9474 245.5,64C 280.002,63.1691 314.336,63.3358 348.5,64.5 Z"/></g>
<g><path style="opacity:0.278" fill="#3f3e49" d="M 281.5,103.5 C 285.683,105.087 289.35,107.421 292.5,110.5C 291.833,110.5 291.167,110.5 290.5,110.5C 287.171,108.494 284.171,106.161 281.5,103.5 Z"/></g>
<g><path style="opacity:0.049" fill="#27292f" d="M 240.5,110.5 C 244.311,109.355 248.311,109.188 252.5,110C 253.821,113.934 253.821,117.767 252.5,121.5C 252.813,117.958 252.479,114.625 251.5,111.5C 248.038,110.518 244.371,110.185 240.5,110.5 Z"/></g>
<g><path style="opacity:0.773" fill="#6d707d" d="M 290.5,110.5 C 291.167,110.5 291.833,110.5 292.5,110.5C 295.198,110.845 297.198,112.178 298.5,114.5C 295.455,113.721 292.789,112.387 290.5,110.5 Z"/></g>
<g><path style="opacity:0.639" fill="#9092a2" d="M 364.5,70.5 C 365.924,72.5145 366.59,74.8478 366.5,77.5C 366.832,113.004 366.498,148.337 365.5,183.5C 365.5,148.5 365.5,113.5 365.5,78.5C 365.167,75.8333 364.833,73.1667 364.5,70.5 Z"/></g>
<g><path style="opacity:0.957" fill="#b2b6c6" d="M 281.5,103.5 C 284.171,106.161 287.171,108.494 290.5,110.5C 292.789,112.387 295.455,113.721 298.5,114.5C 299.659,116.25 301.326,117.25 303.5,117.5C 306.061,120.717 309.395,122.717 313.5,123.5C 316.386,125.774 319.052,128.274 321.5,131C 319.561,133.947 317.228,136.447 314.5,138.5C 302.491,143.511 291.491,150.177 281.5,158.5C 280.178,158.67 279.011,158.337 278,157.5C 277.333,139.833 277.333,122.167 278,104.5C 279.011,103.663 280.178,103.33 281.5,103.5 Z M 286.5,112.5 C 286.973,113.906 287.973,114.573 289.5,114.5C 290.659,116.25 292.326,117.25 294.5,117.5C 294.973,118.906 295.973,119.573 297.5,119.5C 297.842,120.338 298.508,120.672 299.5,120.5C 299.973,121.906 300.973,122.573 302.5,122.5C 302.842,123.338 303.508,123.672 304.5,123.5C 304.973,124.906 305.973,125.573 307.5,125.5C 308.899,126.89 310.566,127.89 312.5,128.5C 312.953,129.458 313.619,130.292 314.5,131C 313.29,132.039 312.29,133.206 311.5,134.5C 308.669,135.079 306.336,136.412 304.5,138.5C 302.566,139.11 300.899,140.11 299.5,141.5C 296.489,142.669 293.822,144.336 291.5,146.5C 288.996,147.584 286.663,148.917 284.5,150.5C 283.17,144.369 282.503,137.869 282.5,131C 282.833,124.5 283.167,118 283.5,111.5C 284.417,112.127 285.417,112.461 286.5,112.5 Z"/></g>
<g><path style="opacity:0.216" fill="#2c3136" d="M 289.5,114.5 C 291.674,114.75 293.341,115.75 294.5,117.5C 292.326,117.25 290.659,116.25 289.5,114.5 Z"/></g>
<g><path style="opacity:0.098" fill="#303040" d="M 286.5,112.5 C 288.027,112.427 289.027,113.094 289.5,114.5C 287.973,114.573 286.973,113.906 286.5,112.5 Z"/></g>
<g><path style="opacity:0.086" fill="#1b1f2a" d="M 286.5,112.5 C 285.417,112.461 284.417,112.127 283.5,111.5C 283.167,118 282.833,124.5 282.5,131C 282.503,137.869 283.17,144.369 284.5,150.5C 284.5,150.833 284.5,151.167 284.5,151.5C 283.5,151.5 282.5,151.5 281.5,151.5C 281.5,137.833 281.5,124.167 281.5,110.5C 283.698,110.12 285.365,110.787 286.5,112.5 Z"/></g>
<g><path style="opacity:0.188" fill="#474d5a" d="M 298.5,114.5 C 300.674,114.75 302.341,115.75 303.5,117.5C 301.326,117.25 299.659,116.25 298.5,114.5 Z"/></g>
<g><path style="opacity:0.145" fill="#3a3d41" d="M 353.5,110.5 C 349.958,110.187 346.625,110.521 343.5,111.5C 342.521,114.625 342.187,117.958 342.5,121.5C 341.357,118.024 341.19,114.358 342,110.5C 345.934,109.179 349.767,109.179 353.5,110.5 Z"/></g>
<g><path style="opacity:0.145" fill="#343847" d="M 294.5,117.5 C 296.027,117.427 297.027,118.094 297.5,119.5C 295.973,119.573 294.973,118.906 294.5,117.5 Z"/></g>
<g><path style="opacity:0.102" fill="#23272e" d="M 281.5,103.5 C 280.178,103.33 279.011,103.663 278,104.5C 277.333,122.167 277.333,139.833 278,157.5C 279.011,158.337 280.178,158.67 281.5,158.5C 280.116,159.801 278.616,159.801 277,158.5C 276.333,140.167 276.333,121.833 277,103.5C 278.616,102.199 280.116,102.199 281.5,103.5 Z"/></g>
<g><path style="opacity:0.373" fill="#5f6271" d="M 303.5,117.5 C 307.173,119 310.506,121 313.5,123.5C 309.395,122.717 306.061,120.717 303.5,117.5 Z"/></g>
<g><path style="opacity:0.62" fill="#777e87" d="M 353.5,110.5 C 354.787,111.871 355.453,113.705 355.5,116C 355.333,117.833 355.167,119.667 355,121.5C 350.733,122.822 346.566,122.822 342.5,121.5C 342.187,117.958 342.521,114.625 343.5,111.5C 346.625,110.521 349.958,110.187 353.5,110.5 Z"/></g>
<g><path style="opacity:1" fill="#d6dff6" d="M 343.5,111.5 C 346.833,111.5 350.167,111.5 353.5,111.5C 353.5,114.5 353.5,117.5 353.5,120.5C 350.167,120.5 346.833,120.5 343.5,120.5C 343.5,117.5 343.5,114.5 343.5,111.5 Z"/></g>
<g><path style="opacity:0.451" fill="#494c53" d="M 206.5,127.5 C 210.805,125.254 215.471,123.92 220.5,123.5C 220.5,122.5 220.5,121.5 220.5,120.5C 213.303,122.423 205.97,123.756 198.5,124.5C 205.343,122.369 212.343,120.369 219.5,118.5C 222.313,119.617 222.98,121.45 221.5,124C 216.666,125.867 211.666,127.034 206.5,127.5 Z"/></g>
<g><path style="opacity:0.244" fill="#50545c" d="M 240.5,110.5 C 244.371,110.185 248.038,110.518 251.5,111.5C 252.479,114.625 252.813,117.958 252.5,121.5C 248.317,122.811 243.984,122.811 239.5,121.5C 237.957,117.538 238.29,113.872 240.5,110.5 Z"/></g>
<g><path style="opacity:0.793" fill="#b0b7c6" d="M 251.5,111.5 C 251.5,114.833 251.5,118.167 251.5,121.5C 247.833,121.5 244.167,121.5 240.5,121.5C 240.5,118.167 240.5,114.833 240.5,111.5C 244.167,111.5 247.833,111.5 251.5,111.5 Z"/></g>
<g><path style="opacity:1" fill="#d7e1fb" d="M 241.5,112.5 C 244.5,112.5 247.5,112.5 250.5,112.5C 250.5,115.167 250.5,117.833 250.5,120.5C 247.5,120.5 244.5,120.5 241.5,120.5C 241.5,117.833 241.5,115.167 241.5,112.5 Z"/></g>
<g><path style="opacity:0.098" fill="#2e3337" d="M 299.5,120.5 C 301.027,120.427 302.027,121.094 302.5,122.5C 300.973,122.573 299.973,121.906 299.5,120.5 Z"/></g>
<g><path style="opacity:0.145" fill="#30373c" d="M 304.5,123.5 C 305.167,123.5 305.833,123.5 306.5,123.5C 306.833,124.167 307.167,124.833 307.5,125.5C 305.973,125.573 304.973,124.906 304.5,123.5 Z"/></g>
<g><path style="opacity:0.765" fill="#747c88" d="M 306.5,123.5 C 309.288,124.226 311.288,125.893 312.5,128.5C 310.566,127.89 308.899,126.89 307.5,125.5C 307.167,124.833 306.833,124.167 306.5,123.5 Z"/></g>
<g><path style="opacity:0.443" fill="#555a64" d="M 313.5,123.5 C 326.3,127.861 326.633,132.861 314.5,138.5C 317.228,136.447 319.561,133.947 321.5,131C 319.052,128.274 316.386,125.774 313.5,123.5 Z"/></g>
<g><path style="opacity:0.863" fill="#787c88" d="M 198.5,124.5 C 195.918,126.742 192.918,128.076 189.5,128.5C 191.835,125.835 194.835,124.502 198.5,124.5 Z"/></g>
<g><path style="opacity:0.252" fill="#444951" d="M 230.5,69.5 C 230.425,72.4067 229.591,75.0734 228,77.5C 227.169,113.336 227.336,149.002 228.5,184.5C 228.285,186.179 228.952,187.179 230.5,187.5C 231.374,190.913 233.041,193.913 235.5,196.5C 231.258,194.061 228.425,190.395 227,185.5C 226.445,156.468 225.945,127.468 225.5,98.5C 226.148,90.8439 226.648,83.1772 227,75.5C 227.716,73.1209 228.883,71.1209 230.5,69.5 Z"/></g>
<g><path style="opacity:0.122" fill="#42454f" d="M 354.5,67.5 C 360.543,70.2608 363.543,74.9274 363.5,81.5C 363.5,113.833 363.5,146.167 363.5,178.5C 362.833,180.5 362.167,182.5 361.5,184.5C 362.617,150.514 362.784,116.514 362,82.5C 361.654,79.4245 360.988,76.4245 360,73.5C 357.96,71.6298 356.127,69.6298 354.5,67.5 Z"/></g>
<g><path style="opacity:0.165" fill="#3a3c48" d="M 206.5,127.5 C 200.779,129.075 195.112,131.075 189.5,133.5C 194.36,129.545 200.027,127.545 206.5,127.5 Z"/></g>
<g><path style="opacity:0.404" fill="#636770" d="M 189.5,128.5 C 187.5,131.167 185.167,133.5 182.5,135.5C 183.833,132.167 186.167,129.833 189.5,128.5 Z"/></g>
<g><path style="opacity:0.251" fill="#353a44" d="M 312.5,128.5 C 314.252,128.418 315.252,129.251 315.5,131C 314.928,133.074 313.595,134.24 311.5,134.5C 312.29,133.206 313.29,132.039 314.5,131C 313.619,130.292 312.953,129.458 312.5,128.5 Z"/></g>
<g><path style="opacity:0.912" fill="#c5c9d8" d="M 365.5,78.5 C 365.5,113.5 365.5,148.5 365.5,183.5C 363.744,182.448 363.077,180.781 363.5,178.5C 363.5,146.167 363.5,113.833 363.5,81.5C 363.343,80.1266 363.51,78.7932 364,77.5C 364.383,78.056 364.883,78.3893 365.5,78.5 Z"/></g>
<g><path style="opacity:0.106" fill="#3e404b" d="M 366.5,77.5 C 367.664,112.998 367.831,148.664 367,184.5C 366.768,185.737 366.268,186.737 365.5,187.5C 365.5,186.167 365.5,184.833 365.5,183.5C 366.498,148.337 366.832,113.004 366.5,77.5 Z"/></g>
<g><path style="opacity:0.102" fill="#2a2b34" d="M 240.5,137.5 C 244.311,136.355 248.311,136.188 252.5,137C 253.821,140.934 253.821,144.767 252.5,148.5C 252.813,144.958 252.479,141.625 251.5,138.5C 248.375,137.521 245.042,137.187 241.5,137.5C 241.167,137.5 240.833,137.5 240.5,137.5 Z"/></g>
<g><path style="opacity:0.408" fill="#505561" d="M 311.5,134.5 C 310.652,136.093 309.319,137.26 307.5,138C 306.552,138.483 305.552,138.649 304.5,138.5C 306.336,136.412 308.669,135.079 311.5,134.5 Z"/></g>
<g><path style="opacity:0.31" fill="#464952" d="M 304.5,138.5 C 303.599,140.727 301.933,141.727 299.5,141.5C 300.899,140.11 302.566,139.11 304.5,138.5 Z"/></g>
<g><path style="opacity:0.875" fill="#d1d9e8" d="M 230.5,77.5 C 230.667,112.835 230.5,148.168 230,183.5C 229.617,184.056 229.117,184.389 228.5,184.5C 228.333,149.165 228.5,113.832 229,78.5C 229.383,77.944 229.883,77.6107 230.5,77.5 Z"/></g>
<g><path style="opacity:0.353" fill="#454953" d="M 299.5,141.5 C 297.47,144.182 294.803,145.849 291.5,146.5C 293.822,144.336 296.489,142.669 299.5,141.5 Z"/></g>
<g><path style="opacity:0.17" fill="#393c45" d="M 353.5,137.5 C 349.958,137.187 346.625,137.521 343.5,138.5C 342.518,141.962 342.185,145.629 342.5,149.5C 341.355,145.689 341.188,141.689 342,137.5C 345.934,136.179 349.767,136.179 353.5,137.5 Z"/></g>
<g><path style="opacity:0.518" fill="#666a74" d="M 182.5,135.5 C 182.046,138.865 181.38,142.198 180.5,145.5C 181.297,149.798 181.63,154.132 181.5,158.5C 179.978,154.417 178.978,150.084 178.5,145.5C 178.876,141.69 180.209,138.356 182.5,135.5 Z"/></g>
<g><path style="opacity:0.102" fill="#42434e" d="M 314.5,138.5 C 303.674,145.415 292.674,152.081 281.5,158.5C 291.491,150.177 302.491,143.511 314.5,138.5 Z"/></g>
<g><path style="opacity:0.077" fill="#4a4b54" d="M 188.5,134.5 C 185.016,139.61 183.683,145.277 184.5,151.5C 183.357,148.024 183.19,144.358 184,140.5C 184.814,137.823 186.314,135.823 188.5,134.5 Z"/></g>
<g><path style="opacity:0.353" fill="#474b58" d="M 240.5,137.5 C 240.833,137.5 241.167,137.5 241.5,137.5C 240.213,141.268 240.213,144.935 241.5,148.5C 244.625,149.479 247.958,149.813 251.5,149.5C 239.431,153.1 235.765,149.1 240.5,137.5 Z"/></g>
<g><path style="opacity:1" fill="#d3dbf1" d="M 241.5,137.5 C 245.042,137.187 248.375,137.521 251.5,138.5C 251.5,141.833 251.5,145.167 251.5,148.5C 248.167,148.5 244.833,148.5 241.5,148.5C 240.213,144.935 240.213,141.268 241.5,137.5 Z"/></g>
<g><path style="opacity:0.322" fill="#535561" d="M 291.5,146.5 C 290.008,149.323 287.674,150.99 284.5,151.5C 284.5,151.167 284.5,150.833 284.5,150.5C 286.663,148.917 288.996,147.584 291.5,146.5 Z"/></g>
<g><path style="opacity:0.62" fill="#888d99" d="M 251.5,138.5 C 252.479,141.625 252.813,144.958 252.5,148.5C 252.5,149.167 252.167,149.5 251.5,149.5C 247.958,149.813 244.625,149.479 241.5,148.5C 244.833,148.5 248.167,148.5 251.5,148.5C 251.5,145.167 251.5,141.833 251.5,138.5 Z"/></g>
<g><path style="opacity:0.586" fill="#787b88" d="M 353.5,137.5 C 354.794,139.048 355.461,141.048 355.5,143.5C 355.333,145.5 355.167,147.5 355,149.5C 350.733,150.822 346.566,150.822 342.5,149.5C 342.185,145.629 342.518,141.962 343.5,138.5C 346.625,137.521 349.958,137.187 353.5,137.5 Z"/></g>
<g><path style="opacity:1" fill="#d8e0f8" d="M 343.5,138.5 C 346.833,138.5 350.167,138.5 353.5,138.5C 353.5,141.833 353.5,145.167 353.5,148.5C 350.167,148.5 346.833,148.5 343.5,148.5C 343.5,145.167 343.5,141.833 343.5,138.5 Z"/></g>
<g><path style="opacity:0.153" fill="#51555d" d="M 181.5,158.5 C 182.924,160.515 183.59,162.848 183.5,165.5C 182.076,163.485 181.41,161.152 181.5,158.5 Z"/></g>
<g><path style="opacity:0.188" fill="#41434b" d="M 354.5,176.5 C 354.815,172.629 354.482,168.962 353.5,165.5C 342.753,161.919 339.42,165.586 343.5,176.5C 342.206,174.952 341.539,172.952 341.5,170.5C 340.167,164.5 342.5,162.167 348.5,163.5C 350.759,163.532 352.925,163.866 355,164.5C 355.812,168.689 355.645,172.689 354.5,176.5 Z"/></g>
<g><path style="opacity:0.122" fill="#42454e" d="M 186.5,159.5 C 188.04,161.838 188.706,164.505 188.5,167.5C 186.96,165.162 186.294,162.495 186.5,159.5 Z"/></g>
<g><path style="opacity:0.11" fill="#464a56" d="M 183.5,166.5 C 185.04,168.838 185.706,171.505 185.5,174.5C 184.232,172.095 183.565,169.428 183.5,166.5 Z"/></g>
<g><path style="opacity:0.873" fill="#969aaa" d="M 251.5,164.5 C 251.815,168.371 251.482,172.038 250.5,175.5C 250.5,172.167 250.5,168.833 250.5,165.5C 247.5,165.5 244.5,165.5 241.5,165.5C 241.5,168.833 241.5,172.167 241.5,175.5C 240.518,172.038 240.185,168.371 240.5,164.5C 244.167,163.167 247.833,163.167 251.5,164.5 Z"/></g>
<g><path style="opacity:0.999" fill="#9498a6" d="M 353.5,165.5 C 354.482,168.962 354.815,172.629 354.5,176.5C 350.833,177.833 347.167,177.833 343.5,176.5C 339.42,165.586 342.753,161.919 353.5,165.5 Z"/></g>
<g><path style="opacity:1" fill="#d7e0f7" d="M 353.5,165.5 C 353.5,168.833 353.5,172.167 353.5,175.5C 350.552,175.777 347.719,175.444 345,174.5C 344.502,171.518 344.335,168.518 344.5,165.5C 347.5,165.5 350.5,165.5 353.5,165.5 Z"/></g>
<g><path style="opacity:0.551" fill="#565866" d="M 240.5,164.5 C 240.185,168.371 240.518,172.038 241.5,175.5C 244.5,175.5 247.5,175.5 250.5,175.5C 251.482,172.038 251.815,168.371 251.5,164.5C 252.117,164.611 252.617,164.944 253,165.5C 255.489,177.005 251.156,180.671 240,176.5C 239.5,174 239,171.5 238.5,169C 238.525,167.124 239.191,165.624 240.5,164.5 Z"/></g>
<g><path style="opacity:1" fill="#d9e0f9" d="M 250.5,175.5 C 247.5,175.5 244.5,175.5 241.5,175.5C 241.5,172.167 241.5,168.833 241.5,165.5C 244.5,165.5 247.5,165.5 250.5,165.5C 250.5,168.833 250.5,172.167 250.5,175.5 Z"/></g>
<g><path style="opacity:0.392" fill="#676d7b" d="M 189.5,171.5 C 191.26,175.547 192.26,179.88 192.5,184.5C 190.933,183.319 190.099,181.653 190,179.5C 189.503,176.854 189.336,174.187 189.5,171.5 Z"/></g>
<g><path style="opacity:0.075" fill="#3e444a" d="M 185.5,174.5 C 187.04,176.838 187.706,179.505 187.5,182.5C 186.232,180.095 185.565,177.428 185.5,174.5 Z"/></g>
<g><path style="opacity:0.141" fill="#494a57" d="M 187.5,182.5 C 189.04,184.838 189.706,187.505 189.5,190.5C 188.232,188.095 187.565,185.428 187.5,182.5 Z"/></g>
<g><path style="opacity:0.961" fill="#b5bbc7" d="M 363.5,178.5 C 363.077,180.781 363.744,182.448 365.5,183.5C 365.5,184.833 365.5,186.167 365.5,187.5C 363.952,187.821 363.285,188.821 363.5,190.5C 362.5,190.5 361.5,190.5 360.5,190.5C 360.833,188.5 361.167,186.5 361.5,184.5C 362.167,182.5 362.833,180.5 363.5,178.5 Z"/></g>
<g><path style="opacity:0.114" fill="#464651" d="M 192.5,184.5 C 194.04,186.838 194.706,189.505 194.5,192.5C 193.232,190.095 192.565,187.428 192.5,184.5 Z"/></g>
<g><path style="opacity:0.224" fill="#383b46" d="M 234.5,188.5 C 236.167,189.5 237.5,190.833 238.5,192.5C 236.167,192.167 234.833,190.833 234.5,188.5 Z"/></g>
<g><path style="opacity:0.933" fill="#70737f" d="M 361.5,184.5 C 361.167,186.5 360.833,188.5 360.5,190.5C 361.5,190.5 362.5,190.5 363.5,190.5C 363.285,188.821 363.952,187.821 365.5,187.5C 365.031,190.643 363.364,192.977 360.5,194.5C 360.5,193.5 360.5,192.5 360.5,191.5C 358.784,191.629 357.117,191.962 355.5,192.5C 357.916,190.092 359.916,187.426 361.5,184.5 Z"/></g>
<g><path style="opacity:0.878" fill="#bcc1ce" d="M 234.5,188.5 C 234.833,190.833 236.167,192.167 238.5,192.5C 240.082,194.374 242.082,195.707 244.5,196.5C 242.007,196.131 241.34,196.797 242.5,198.5C 241.167,198.5 239.833,198.5 238.5,198.5C 238.027,197.094 237.027,196.427 235.5,196.5C 233.041,193.913 231.374,190.913 230.5,187.5C 230.369,186.761 230.536,186.094 231,185.5C 231.759,187.063 232.926,188.063 234.5,188.5 Z"/></g>
<g><path style="opacity:0.102" fill="#4e5566" d="M 238.5,192.5 C 240.812,193.32 243.146,194.153 245.5,195C 279.833,195.667 314.167,195.667 348.5,195C 350.854,194.153 353.188,193.32 355.5,192.5C 354.264,194.828 352.264,195.994 349.5,196C 314.502,196.5 279.502,196.667 244.5,196.5C 242.082,195.707 240.082,194.374 238.5,192.5 Z"/></g>
<g><path style="opacity:0.259" fill="#36364d" d="M 235.5,196.5 C 237.027,196.427 238.027,197.094 238.5,198.5C 236.973,198.573 235.973,197.906 235.5,196.5 Z"/></g>
<g><path style="opacity:0.247" fill="#575861" d="M 358.5,196.5 C 356.97,198.346 354.97,199.346 352.5,199.5C 353.911,197.461 355.911,196.461 358.5,196.5 Z"/></g>
<g><path style="opacity:0.968" fill="#dce4f9" d="M 244.5,196.5 C 279.331,197.333 314.331,197.833 349.5,198C 313.835,198.5 278.168,198.667 242.5,198.5C 241.34,196.797 242.007,196.131 244.5,196.5 Z"/></g>
<g><path style="opacity:0.153" fill="#383c45" d="M 194.5,192.5 C 197.416,200.164 199.416,208.164 200.5,216.5C 197.896,208.751 195.896,200.751 194.5,192.5 Z"/></g>
<g><path style="opacity:0.9" fill="#adb4c5" d="M 360.5,194.5 C 360.167,195.5 359.5,196.167 358.5,196.5C 355.911,196.461 353.911,197.461 352.5,199.5C 351.791,200.404 350.791,200.737 349.5,200.5C 314.832,200.667 280.165,200.5 245.5,200C 244.263,199.768 243.263,199.268 242.5,198.5C 278.168,198.667 313.835,198.5 349.5,198C 314.331,197.833 279.331,197.333 244.5,196.5C 279.502,196.667 314.502,196.5 349.5,196C 352.264,195.994 354.264,194.828 355.5,192.5C 357.117,191.962 358.784,191.629 360.5,191.5C 360.5,192.5 360.5,193.5 360.5,194.5 Z"/></g>
<g><path style="opacity:0.077" fill="#272a35" d="M 238.5,198.5 C 239.833,198.5 241.167,198.5 242.5,198.5C 243.263,199.268 244.263,199.768 245.5,200C 280.165,200.5 314.832,200.667 349.5,200.5C 342.162,201.286 334.662,201.953 327,202.5C 299.515,201.696 272.015,201.196 244.5,201C 242.148,200.76 240.148,199.927 238.5,198.5 Z"/></g>
<g><path style="opacity:0.067" fill="#2b2b38" d="M 329.5,206.5 C 328.167,206.5 326.833,206.5 325.5,206.5C 325.813,210.042 325.479,213.375 324.5,216.5C 324.335,212.818 324.501,209.152 325,205.5C 327.045,203.957 328.545,204.29 329.5,206.5 Z"/></g>
<g><path style="opacity:0.663" fill="#8a8c9e" d="M 329.5,206.5 C 329.81,209.713 329.477,212.713 328.5,215.5C 328.813,212.753 328.48,210.086 327.5,207.5C 326.676,210.785 326.176,214.118 326,217.5C 325.617,218.056 325.117,218.389 324.5,218.5C 324.5,217.833 324.5,217.167 324.5,216.5C 325.479,213.375 325.813,210.042 325.5,206.5C 326.833,206.5 328.167,206.5 329.5,206.5 Z"/></g>
<g><path style="opacity:0.161" fill="#3e424c" d="M 189.5,190.5 C 194.325,207.598 198.658,224.931 202.5,242.5C 196.941,225.597 192.608,208.264 189.5,190.5 Z"/></g>
<g><path style="opacity:0.063" fill="#3b3c48" d="M 329.5,206.5 C 330.777,211.39 330.61,216.39 329,221.5C 328.051,223.093 326.885,224.426 325.5,225.5C 327.5,222.487 328.5,219.154 328.5,215.5C 329.477,212.713 329.81,209.713 329.5,206.5 Z"/></g>
<g><path style="opacity:0.184" fill="#585a66" d="M 325.5,225.5 C 320.645,230.594 314.645,233.594 307.5,234.5C 313.699,232.067 319.699,229.067 325.5,225.5 Z"/></g>
<g><path style="opacity:0.322" fill="#4c4d5c" d="M 306.5,234.5 C 301.427,236.435 296.094,237.768 290.5,238.5C 290.611,237.883 290.944,237.383 291.5,237C 296.384,235.426 301.384,234.593 306.5,234.5 Z"/></g>
<g><path style="opacity:0.224" fill="#494a56" d="M 289.5,238.5 C 283.474,240.924 277.141,242.591 270.5,243.5C 270.611,242.883 270.944,242.383 271.5,242C 277.463,240.507 283.463,239.341 289.5,238.5 Z"/></g>
<g><path style="opacity:0.224" fill="#464654" d="M 270.5,243.5 C 266.761,245.102 262.761,246.102 258.5,246.5C 258.962,245.12 259.962,244.453 261.5,244.5C 264.449,243.698 267.449,243.364 270.5,243.5 Z"/></g>
<g><path style="opacity:0.161" fill="#454753" d="M 202.5,242.5 C 204.326,244.147 205.66,246.147 206.5,248.5C 204.178,247.198 202.845,245.198 202.5,242.5 Z"/></g>
<g><path style="opacity:0.298" fill="#4a4b5b" d="M 206.5,248.5 C 208.027,248.427 209.027,249.094 209.5,250.5C 207.973,250.573 206.973,249.906 206.5,248.5 Z"/></g>
<g><path style="opacity:0.275" fill="#4f535f" d="M 258.5,246.5 C 248.998,249.127 239.331,251.627 229.5,254C 225.167,254.667 220.833,254.667 216.5,254C 215.263,253.768 214.263,253.268 213.5,252.5C 217.808,253.368 222.141,253.534 226.5,253C 237.005,249.872 247.672,247.706 258.5,246.5 Z"/></g>
<g><path style="opacity:0.931" fill="#bec2d1" d="M 206.5,127.5 C 200.027,127.545 194.36,129.545 189.5,133.5C 189.5,134.167 189.167,134.5 188.5,134.5C 186.314,135.823 184.814,137.823 184,140.5C 183.19,144.358 183.357,148.024 184.5,151.5C 185.768,153.905 186.435,156.572 186.5,159.5C 186.294,162.495 186.96,165.162 188.5,167.5C 189.434,168.568 189.768,169.901 189.5,171.5C 189.336,174.187 189.503,176.854 190,179.5C 190.099,181.653 190.933,183.319 192.5,184.5C 192.565,187.428 193.232,190.095 194.5,192.5C 195.896,200.751 197.896,208.751 200.5,216.5C 201.434,217.568 201.768,218.901 201.5,220.5C 201.294,223.495 201.96,226.162 203.5,228.5C 202.839,233.393 203.839,237.726 206.5,241.5C 208.167,243.833 210.167,245.833 212.5,247.5C 213.429,248.315 214.429,249.148 215.5,250C 219.5,250.667 223.5,250.667 227.5,250C 238.063,247.392 248.397,244.559 258.5,241.5C 266.154,240.751 273.487,239.084 280.5,236.5C 286.455,235.927 292.122,234.593 297.5,232.5C 298.568,231.566 299.901,231.232 301.5,231.5C 305.879,230.987 310.213,230.153 314.5,229C 316.324,228.34 317.657,227.173 318.5,225.5C 320.5,225.5 321.5,224.5 321.5,222.5C 323.262,221.738 324.262,220.404 324.5,218.5C 325.117,218.389 325.617,218.056 326,217.5C 326.176,214.118 326.676,210.785 327.5,207.5C 328.48,210.086 328.813,212.753 328.5,215.5C 328.5,219.154 327.5,222.487 325.5,225.5C 319.699,229.067 313.699,232.067 307.5,234.5C 307.167,234.5 306.833,234.5 306.5,234.5C 301.384,234.593 296.384,235.426 291.5,237C 290.944,237.383 290.611,237.883 290.5,238.5C 290.167,238.5 289.833,238.5 289.5,238.5C 283.463,239.341 277.463,240.507 271.5,242C 270.944,242.383 270.611,242.883 270.5,243.5C 267.449,243.364 264.449,243.698 261.5,244.5C 259.962,244.453 258.962,245.12 258.5,246.5C 247.672,247.706 237.005,249.872 226.5,253C 222.141,253.534 217.808,253.368 213.5,252.5C 211.847,252.34 210.514,251.674 209.5,250.5C 209.027,249.094 208.027,248.427 206.5,248.5C 205.66,246.147 204.326,244.147 202.5,242.5C 198.658,224.931 194.325,207.598 189.5,190.5C 189.706,187.505 189.04,184.838 187.5,182.5C 187.706,179.505 187.04,176.838 185.5,174.5C 185.706,171.505 185.04,168.838 183.5,166.5C 183.5,166.167 183.5,165.833 183.5,165.5C 183.59,162.848 182.924,160.515 181.5,158.5C 181.63,154.132 181.297,149.798 180.5,145.5C 181.38,142.198 182.046,138.865 182.5,135.5C 185.167,133.5 187.5,131.167 189.5,128.5C 192.918,128.076 195.918,126.742 198.5,124.5C 205.97,123.756 213.303,122.423 220.5,120.5C 220.5,121.5 220.5,122.5 220.5,123.5C 215.471,123.92 210.805,125.254 206.5,127.5 Z"/></g>
<g><path style="opacity:0.353" fill="#5b5e68" d="M 258.5,241.5 C 248.397,244.559 238.063,247.392 227.5,250C 223.5,250.667 219.5,250.667 215.5,250C 214.429,249.148 213.429,248.315 212.5,247.5C 213.167,247.5 213.833,247.5 214.5,247.5C 219.416,248.611 224.416,248.778 229.5,248C 239.135,245.617 248.802,243.451 258.5,241.5 Z"/></g>
<g><path style="opacity:0.059" fill="#3a3b45" d="M 206.5,239.5 C 208.833,242.5 211.5,245.167 214.5,247.5C 213.833,247.5 213.167,247.5 212.5,247.5C 210.167,245.833 208.167,243.833 206.5,241.5C 206.5,240.833 206.5,240.167 206.5,239.5 Z"/></g>
<g><path style="opacity:0.435" fill="#5b5c66" d="M 280.5,236.5 C 273.487,239.084 266.154,240.751 258.5,241.5C 265.584,239.231 272.918,237.565 280.5,236.5 Z"/></g>
<g><path style="opacity:0.443" fill="#5e606b" d="M 203.5,228.5 C 204.632,232.019 205.632,235.686 206.5,239.5C 206.5,240.167 206.5,240.833 206.5,241.5C 203.839,237.726 202.839,233.393 203.5,228.5 Z"/></g>
<g><path style="opacity:0.322" fill="#616269" d="M 297.5,232.5 C 292.122,234.593 286.455,235.927 280.5,236.5C 285.878,234.407 291.545,233.073 297.5,232.5 Z"/></g>
<g><path style="opacity:0.596" fill="#6e707e" d="M 318.5,225.5 C 317.657,227.173 316.324,228.34 314.5,229C 310.213,230.153 305.879,230.987 301.5,231.5C 307.173,229.661 312.839,227.661 318.5,225.5 Z"/></g>
<g><path style="opacity:0.404" fill="#535666" d="M 321.5,222.5 C 321.5,224.5 320.5,225.5 318.5,225.5C 319.167,224.167 320.167,223.167 321.5,222.5 Z"/></g>
<g><path style="opacity:0.133" fill="#32333d" d="M 201.5,220.5 C 202.768,222.905 203.435,225.572 203.5,228.5C 201.96,226.162 201.294,223.495 201.5,220.5 Z"/></g>
<g><path style="opacity:0.506" fill="#4c4d59" d="M 324.5,216.5 C 324.5,217.167 324.5,217.833 324.5,218.5C 324.262,220.404 323.262,221.738 321.5,222.5C 322.508,220.456 323.508,218.456 324.5,216.5 Z"/></g>
<g><path style="opacity:0.613" fill="#7a7a7a" d="M 240.5,298.5 C 234.229,296.181 227.896,294.015 221.5,292C 213.841,291.5 206.174,291.334 198.5,291.5C 209.504,288.591 220.504,289.091 231.5,293C 234.898,294.357 237.898,296.19 240.5,298.5 Z"/></g>
<g><path style="opacity:0.077" fill="#3e3e3e" d="M 320.5,291.5 C 331.659,290.341 342.992,290.174 354.5,291C 355.553,292.749 355.22,294.249 353.5,295.5C 353.5,294.833 353.5,294.167 353.5,293.5C 353.5,293.167 353.5,292.833 353.5,292.5C 342.679,291.505 331.679,291.172 320.5,291.5 Z"/></g>
<g><path style="opacity:0.084" fill="#3f3f3f" d="M 393.5,291.5 C 382.5,291.5 371.5,291.5 360.5,291.5C 360.232,293.099 360.566,294.432 361.5,295.5C 361.5,296.167 361.5,296.833 361.5,297.5C 358.927,295.868 358.261,293.702 359.5,291C 371.008,290.174 382.341,290.341 393.5,291.5 Z"/></g>
<g><path style="opacity:0.617" fill="#767676" d="M 457.5,291.5 C 457.5,291.833 457.5,292.167 457.5,292.5C 445.293,290.63 433.293,291.297 421.5,294.5C 425.424,292.135 429.757,290.635 434.5,290C 442.323,289.027 449.989,289.527 457.5,291.5 Z"/></g>
<g><path style="opacity:0.524" fill="#7a7a7a" d="M 97.5,291.5 C 97.5,291.833 97.5,292.167 97.5,292.5C 85.4521,291.855 73.7854,292.522 62.5,294.5C 62.1667,294.5 61.8333,294.5 61.5,294.5C 60.2935,293.12 60.6269,291.953 62.5,291C 74.3407,290.174 86.0073,290.341 97.5,291.5 Z"/></g>
<g><path style="opacity:0.546" fill="#7e7e7e" d="M 161.5,291.5 C 161.768,293.099 161.434,294.432 160.5,295.5C 160.5,294.5 160.5,293.5 160.5,292.5C 149.167,292.5 137.833,292.5 126.5,292.5C 126.813,296.042 126.479,299.375 125.5,302.5C 125.5,299.833 125.5,297.167 125.5,294.5C 125.36,292.876 126.027,291.71 127.5,291C 139.008,290.174 150.341,290.341 161.5,291.5 Z"/></g>
<g><path style="opacity:0.584" fill="#777777" d="M 293.5,295.5 C 292.833,295.833 292.167,296.167 291.5,296.5C 291.539,295.417 291.873,294.417 292.5,293.5C 287.333,293.167 282.167,292.833 277,292.5C 271.454,292.505 266.288,293.172 261.5,294.5C 260.596,293.791 260.263,292.791 260.5,291.5C 271.326,290.341 282.326,290.174 293.5,291C 294.728,292.49 294.728,293.99 293.5,295.5 Z"/></g>
<g><path style="opacity:0.518" fill="#999999" d="M 320.5,291.5 C 331.679,291.172 342.679,291.505 353.5,292.5C 342.448,291.857 331.781,292.524 321.5,294.5C 321.167,294.5 320.833,294.5 320.5,294.5C 319.375,293.652 319.375,292.652 320.5,291.5 Z"/></g>
<g><path style="opacity:0.567" fill="#969696" d="M 393.5,291.5 C 394.794,293.68 394.461,295.68 392.5,297.5C 392.5,295.833 392.5,294.167 392.5,292.5C 382.167,292.5 371.833,292.5 361.5,292.5C 361.5,293.5 361.5,294.5 361.5,295.5C 360.566,294.432 360.232,293.099 360.5,291.5C 371.5,291.5 382.5,291.5 393.5,291.5 Z"/></g>
<g><path style="opacity:0.463" fill="#5c5c5c" d="M 161.5,291.5 C 162.289,291.783 162.956,292.283 163.5,293C 162.947,294.878 161.947,296.378 160.5,297.5C 160.5,296.833 160.5,296.167 160.5,295.5C 161.434,294.432 161.768,293.099 161.5,291.5 Z"/></g>
<g><path style="opacity:0.561" fill="#757575" d="M 198.5,291.5 C 194.787,294.023 190.787,296.023 186.5,297.5C 189.65,293.925 193.65,291.925 198.5,291.5 Z"/></g>
<g><path style="opacity:1" fill="#eeeeee" d="M 198.5,291.5 C 206.174,291.334 213.841,291.5 221.5,292C 227.896,294.015 234.229,296.181 240.5,298.5C 240.833,298.5 241.167,298.5 241.5,298.5C 241.5,300.5 242.5,301.5 244.5,301.5C 244.342,304.522 245.675,306.522 248.5,307.5C 249.674,308.514 250.34,309.847 250.5,311.5C 252.008,316.711 253.008,322.044 253.5,327.5C 253.635,334.862 253.302,342.196 252.5,349.5C 252.554,354.435 251.054,358.769 248,362.5C 247.187,364.436 246.687,366.436 246.5,368.5C 245.833,369.833 244.833,370.833 243.5,371.5C 241.5,372.833 239.833,374.5 238.5,376.5C 236.248,377.333 234.081,377.333 232,376.5C 231.52,378.133 230.687,379.466 229.5,380.5C 224.796,382.589 219.796,383.589 214.5,383.5C 207.099,382.933 199.766,381.933 192.5,380.5C 190.847,380.34 189.514,379.674 188.5,378.5C 187.738,376.738 186.404,375.738 184.5,375.5C 183.738,373.738 182.404,372.738 180.5,372.5C 178.774,370.772 177.441,368.772 176.5,366.5C 173.554,359.379 171.554,352.046 170.5,344.5C 170.371,335.433 171.038,326.433 172.5,317.5C 172.5,317.167 172.5,316.833 172.5,316.5C 175.312,311.415 178.312,306.415 181.5,301.5C 183.749,300.92 185.415,299.587 186.5,297.5C 190.787,296.023 194.787,294.023 198.5,291.5 Z M 214.5,308.5 C 215.93,309.537 217.597,310.204 219.5,310.5C 223.505,314.847 226.172,319.847 227.5,325.5C 228.701,333.507 228.701,341.507 227.5,349.5C 226.129,351.936 225.129,354.603 224.5,357.5C 223.094,357.973 222.427,358.973 222.5,360.5C 220.4,362.616 218.067,364.283 215.5,365.5C 212.455,365.492 209.455,365.159 206.5,364.5C 205.564,363.026 204.23,362.026 202.5,361.5C 202.573,359.973 201.906,358.973 200.5,358.5C 199.871,355.603 198.871,352.936 197.5,350.5C 197.1,344.171 196.767,337.838 196.5,331.5C 196.928,322.895 200.262,315.561 206.5,309.5C 209.127,308.908 211.794,308.575 214.5,308.5 Z"/></g>
<g><path style="opacity:1" fill="#efefef" d="M 457.5,292.5 C 459.435,293.15 461.435,293.483 463.5,293.5C 464.659,295.25 466.326,296.25 468.5,296.5C 469.932,299.839 472.265,302.173 475.5,303.5C 476.167,303.833 476.833,304.167 477.5,304.5C 477.427,306.027 478.094,307.027 479.5,307.5C 479.427,309.027 480.094,310.027 481.5,310.5C 485.619,324.884 486.619,339.55 484.5,354.5C 482.926,356.102 482.259,358.102 482.5,360.5C 479.479,364.202 476.812,368.202 474.5,372.5C 472.542,372.908 470.542,373.241 468.5,373.5C 469.127,374.417 469.461,375.417 469.5,376.5C 455.196,384.165 440.196,385.498 424.5,380.5C 423.393,378.031 421.393,377.031 418.5,377.5C 414.769,373.441 411.103,369.441 407.5,365.5C 407.759,363.011 406.759,361.344 404.5,360.5C 403.673,355.523 403.006,350.523 402.5,345.5C 402.365,338.138 402.698,330.804 403.5,323.5C 404.167,319.833 404.833,316.167 405.5,312.5C 405.427,310.973 406.094,309.973 407.5,309.5C 411.461,303.972 416.127,298.972 421.5,294.5C 433.293,291.297 445.293,290.63 457.5,292.5 Z M 441.5,308.5 C 445.412,308.624 449.079,309.624 452.5,311.5C 454.784,315.073 456.784,318.74 458.5,322.5C 460.563,334.845 459.396,346.845 455,358.5C 452.604,361.067 450.104,363.4 447.5,365.5C 442.07,365.802 437.403,364.136 433.5,360.5C 433.573,358.973 432.906,357.973 431.5,357.5C 430.222,353.209 429.222,348.876 428.5,344.5C 428.089,334.99 429.089,325.657 431.5,316.5C 434.592,313.395 437.925,310.729 441.5,308.5 Z"/></g>
<g><path style="opacity:0.176" fill="#535353" d="M 457.5,292.5 C 457.5,292.167 457.5,291.833 457.5,291.5C 459.786,291.595 461.786,292.262 463.5,293.5C 461.435,293.483 459.435,293.15 457.5,292.5 Z"/></g>
<g><path style="opacity:0.999" fill="#eeeeee" d="M 97.5,292.5 C 97.0181,300.769 98.6847,308.435 102.5,315.5C 103.057,320.165 104.39,324.498 106.5,328.5C 107.149,332.951 108.316,337.284 110,341.5C 110.423,342.956 111.256,343.456 112.5,343C 116.76,334.297 119.76,325.13 121.5,315.5C 121.5,315.167 121.5,314.833 121.5,314.5C 123.806,310.915 125.139,306.915 125.5,302.5C 126.479,299.375 126.813,296.042 126.5,292.5C 137.833,292.5 149.167,292.5 160.5,292.5C 160.5,293.5 160.5,294.5 160.5,295.5C 160.5,296.167 160.5,296.833 160.5,297.5C 159.034,298.347 158.2,299.68 158,301.5C 157.5,324.498 157.333,347.498 157.5,370.5C 156.923,374.08 157.923,377.08 160.5,379.5C 151.19,380.498 141.857,380.832 132.5,380.5C 133.578,377.598 134.244,374.598 134.5,371.5C 134.5,371.167 134.5,370.833 134.5,370.5C 135.117,370.389 135.617,370.056 136,369.5C 136.5,357.838 136.667,346.171 136.5,334.5C 134.856,334.286 133.356,334.62 132,335.5C 130.293,337.909 129.46,340.575 129.5,343.5C 129.672,344.492 129.338,345.158 128.5,345.5C 125.835,347.835 124.502,350.835 124.5,354.5C 124.737,355.791 124.404,356.791 123.5,357.5C 122.21,358.058 121.377,359.058 121,360.5C 120.502,363.482 120.335,366.482 120.5,369.5C 119.376,370.809 117.876,371.475 116,371.5C 111.665,370.992 107.499,370.325 103.5,369.5C 103.326,363.559 101.659,358.226 98.5,353.5C 97.4706,348.41 95.4706,343.744 92.5,339.5C 92.8174,335.828 91.1507,334.162 87.5,334.5C 87.1717,346.345 87.5051,358.012 88.5,369.5C 89.4345,370.568 89.7678,371.901 89.5,373.5C 89.6741,375.861 90.0074,378.194 90.5,380.5C 81.3178,380.827 72.3178,380.493 63.5,379.5C 64.1667,377.833 64.8333,376.167 65.5,374.5C 66.2679,373.737 66.7679,372.737 67,371.5C 67.8297,348.33 67.663,325.33 66.5,302.5C 65.6939,299.554 64.3605,296.888 62.5,294.5C 73.7854,292.522 85.4521,291.855 97.5,292.5 Z"/></g>
<g><path style="opacity:1" fill="#eeeeee" d="M 291.5,296.5 C 291.612,304.93 293.278,312.93 296.5,320.5C 297.251,327.503 298.917,334.17 301.5,340.5C 301.171,343.228 301.837,345.562 303.5,347.5C 303.289,351.673 304.456,355.339 307,358.5C 308.903,356.559 309.736,354.226 309.5,351.5C 313.979,337.038 318.145,322.371 322,307.5C 322.814,302.98 322.647,298.646 321.5,294.5C 331.781,292.524 342.448,291.857 353.5,292.5C 353.5,292.833 353.5,293.167 353.5,293.5C 351.108,296.598 348.942,299.931 347,303.5C 343.389,313.106 340.222,322.772 337.5,332.5C 335.215,339.408 333.215,346.408 331.5,353.5C 330.883,353.611 330.383,353.944 330,354.5C 328.69,358.07 327.857,361.737 327.5,365.5C 325.777,367.78 325.111,370.447 325.5,373.5C 323.656,375.279 322.99,377.612 323.5,380.5C 312.5,380.5 301.5,380.5 290.5,380.5C 290.815,376.629 290.482,372.962 289.5,369.5C 288.715,366.596 287.381,363.93 285.5,361.5C 285.139,357.085 283.806,353.085 281.5,349.5C 281.585,346.351 280.585,343.684 278.5,341.5C 277.863,334.923 275.863,328.923 272.5,323.5C 272.741,321.102 272.074,319.102 270.5,317.5C 269.423,309.023 266.423,301.356 261.5,294.5C 266.288,293.172 271.454,292.505 277,292.5C 282.167,292.833 287.333,293.167 292.5,293.5C 291.873,294.417 291.539,295.417 291.5,296.5 Z"/></g>
<g><path style="opacity:1" fill="#eeeeee" d="M 392.5,297.5 C 390.224,297.756 389.057,299.09 389,301.5C 388.17,325.004 388.337,348.337 389.5,371.5C 389.031,374.393 390.031,376.393 392.5,377.5C 392.5,378.833 392.5,380.167 392.5,381.5C 381.813,381.832 371.146,381.499 360.5,380.5C 361.761,378.547 362.927,376.547 364,374.5C 364.83,349.997 364.663,325.663 363.5,301.5C 363.771,299.62 363.104,298.287 361.5,297.5C 361.5,296.833 361.5,296.167 361.5,295.5C 361.5,294.5 361.5,293.5 361.5,292.5C 371.833,292.5 382.167,292.5 392.5,292.5C 392.5,294.167 392.5,295.833 392.5,297.5 Z"/></g>
<g><path style="opacity:0.133" fill="#6c6c6c" d="M 463.5,293.5 C 465.674,293.75 467.341,294.75 468.5,296.5C 466.326,296.25 464.659,295.25 463.5,293.5 Z"/></g>
<g><path style="opacity:0.25" fill="#555555" d="M 293.5,295.5 C 293.322,296.695 292.989,297.862 292.5,299C 293.915,306.157 295.248,313.324 296.5,320.5C 293.278,312.93 291.612,304.93 291.5,296.5C 292.167,296.167 292.833,295.833 293.5,295.5 Z"/></g>
<g><path style="opacity:0.447" fill="#777777" d="M 186.5,297.5 C 185.415,299.587 183.749,300.92 181.5,301.5C 182.585,299.413 184.251,298.08 186.5,297.5 Z"/></g>
<g><path style="opacity:0.263" fill="#4b4b4b" d="M 241.5,298.5 C 242.833,299.167 243.833,300.167 244.5,301.5C 242.5,301.5 241.5,300.5 241.5,298.5 Z"/></g>
<g><path style="opacity:0.133" fill="#616161" d="M 361.5,297.5 C 363.104,298.287 363.771,299.62 363.5,301.5C 362.326,300.486 361.66,299.153 361.5,297.5 Z"/></g>
<g><path style="opacity:0.322" fill="#757575" d="M 421.5,294.5 C 416.127,298.972 411.461,303.972 407.5,309.5C 410.125,302.577 414.791,297.577 421.5,294.5 Z"/></g>
<g><path style="opacity:0.947" fill="#b6b6b6" d="M 468.5,296.5 C 471.093,297.754 473.427,299.42 475.5,301.5C 475.5,302.167 475.5,302.833 475.5,303.5C 472.265,302.173 469.932,299.839 468.5,296.5 Z"/></g>
<g><path style="opacity:0.451" fill="#767676" d="M 181.5,301.5 C 178.312,306.415 175.312,311.415 172.5,316.5C 173.73,310.363 176.73,305.363 181.5,301.5 Z"/></g>
<g><path style="opacity:0.208" fill="#4d4d4d" d="M 260.5,291.5 C 260.263,292.791 260.596,293.791 261.5,294.5C 266.423,301.356 269.423,309.023 270.5,317.5C 268.401,312.714 266.568,307.714 265,302.5C 263.333,300.167 261.667,297.833 260,295.5C 259.235,293.934 259.402,292.601 260.5,291.5 Z"/></g>
<g><path style="opacity:0.278" fill="#565656" d="M 475.5,301.5 C 476.906,301.973 477.573,302.973 477.5,304.5C 476.833,304.167 476.167,303.833 475.5,303.5C 475.5,302.833 475.5,302.167 475.5,301.5 Z"/></g>
<g><path style="opacity:0.447" fill="#8f8f8f" d="M 392.5,297.5 C 391.833,299.5 391.167,301.5 390.5,303.5C 389.503,325.994 389.169,348.661 389.5,371.5C 388.337,348.337 388.17,325.004 389,301.5C 389.057,299.09 390.224,297.756 392.5,297.5 Z"/></g>
<g><path style="opacity:0.259" fill="#636363" d="M 244.5,301.5 C 246.218,303.223 247.551,305.223 248.5,307.5C 245.675,306.522 244.342,304.522 244.5,301.5 Z"/></g>
<g><path style="opacity:0.29" fill="#6f6f6f" d="M 477.5,304.5 C 478.906,304.973 479.573,305.973 479.5,307.5C 478.094,307.027 477.427,306.027 477.5,304.5 Z"/></g>
<g><path style="opacity:0.208" fill="#656565" d="M 97.5,291.5 C 98.8149,299.447 100.482,307.447 102.5,315.5C 98.6847,308.435 97.0181,300.769 97.5,292.5C 97.5,292.167 97.5,291.833 97.5,291.5 Z"/></g>
<g><path style="opacity:0.122" fill="#6b6b6b" d="M 214.5,308.5 C 211.794,308.575 209.127,308.908 206.5,309.5C 208.993,307.416 211.66,307.083 214.5,308.5 Z"/></g>
<g><path style="opacity:0.475" fill="#6f6f6f" d="M 214.5,308.5 C 216.698,308.12 218.365,308.787 219.5,310.5C 217.597,310.204 215.93,309.537 214.5,308.5 Z"/></g>
<g><path style="opacity:0.125" fill="#767676" d="M 441.5,308.5 C 443.966,307.366 446.633,307.199 449.5,308C 451.063,308.759 452.063,309.926 452.5,311.5C 449.079,309.624 445.412,308.624 441.5,308.5 Z"/></g>
<g><path style="opacity:0.349" fill="#5e5e5e" d="M 479.5,307.5 C 480.906,307.973 481.573,308.973 481.5,310.5C 480.094,310.027 479.427,309.027 479.5,307.5 Z"/></g>
<g><path style="opacity:0.212" fill="#626262" d="M 125.5,294.5 C 125.5,297.167 125.5,299.833 125.5,302.5C 125.139,306.915 123.806,310.915 121.5,314.5C 123.488,307.835 124.821,301.169 125.5,294.5 Z"/></g>
<g><path style="opacity:0.49" fill="#7d7d7d" d="M 219.5,310.5 C 221.716,311.203 223.549,312.536 225,314.5C 226.904,317.923 227.737,321.59 227.5,325.5C 226.172,319.847 223.505,314.847 219.5,310.5 Z"/></g>
<g><path style="opacity:0.169" fill="#5f5f5f" d="M 353.5,293.5 C 353.5,294.167 353.5,294.833 353.5,295.5C 351.495,298.351 349.662,301.351 348,304.5C 344.919,313.91 341.753,323.243 338.5,332.5C 338.167,332.5 337.833,332.5 337.5,332.5C 340.222,322.772 343.389,313.106 347,303.5C 348.942,299.931 351.108,296.598 353.5,293.5 Z"/></g>
<g><path style="opacity:0.055" fill="#636363" d="M 206.5,309.5 C 200.262,315.561 196.928,322.895 196.5,331.5C 196.5,329.167 196.5,326.833 196.5,324.5C 197.107,317.604 200.44,312.604 206.5,309.5 Z"/></g>
<g><path style="opacity:0.024" fill="#494949" d="M 441.5,308.5 C 437.925,310.729 434.592,313.395 431.5,316.5C 431.5,316.167 431.5,315.833 431.5,315.5C 433.786,311.529 437.119,309.196 441.5,308.5 Z"/></g>
<g><path style="opacity:0.557" fill="#717171" d="M 405.5,312.5 C 404.833,316.167 404.167,319.833 403.5,323.5C 402.833,324.833 402.167,326.167 401.5,327.5C 401.762,322.112 403.095,317.112 405.5,312.5 Z"/></g>
<g><path style="opacity:0.412" fill="#616161" d="M 102.5,315.5 C 104.61,319.502 105.943,323.835 106.5,328.5C 104.39,324.498 103.057,320.165 102.5,315.5 Z"/></g>
<g><path style="opacity:0.431" fill="#848484" d="M 452.5,311.5 C 457.023,313.635 459.023,317.302 458.5,322.5C 456.784,318.74 454.784,315.073 452.5,311.5 Z"/></g>
<g><path style="opacity:0.157" fill="#424242" d="M 270.5,317.5 C 272.074,319.102 272.741,321.102 272.5,323.5C 271.262,321.786 270.595,319.786 270.5,317.5 Z"/></g>
<g><path style="opacity:0.157" fill="#6a6a6a" d="M 61.5,294.5 C 61.8333,294.5 62.1667,294.5 62.5,294.5C 64.3605,296.888 65.6939,299.554 66.5,302.5C 66.8308,325.339 66.4975,348.006 65.5,370.5C 65.6666,348.164 65.5,325.831 65,303.5C 63.8202,300.479 62.6535,297.479 61.5,294.5 Z"/></g>
<g><path style="opacity:0.373" fill="#565656" d="M 250.5,311.5 C 256.561,323.702 257.894,336.369 254.5,349.5C 254.825,341.981 254.492,334.648 253.5,327.5C 253.008,322.044 252.008,316.711 250.5,311.5 Z"/></g>
<g><path style="opacity:0.212" fill="#5d5d5d" d="M 296.5,320.5 C 298.768,326.906 300.435,333.573 301.5,340.5C 298.917,334.17 297.251,327.503 296.5,320.5 Z"/></g>
<g><path style="opacity:0.402" fill="#727272" d="M 320.5,294.5 C 320.833,294.5 321.167,294.5 321.5,294.5C 322.647,298.646 322.814,302.98 322,307.5C 318.145,322.371 313.979,337.038 309.5,351.5C 312.837,337.15 316.337,322.817 320,308.5C 320.499,303.845 320.666,299.179 320.5,294.5 Z"/></g>
<g><path style="opacity:0.263" fill="#555555" d="M 272.5,323.5 C 275.863,328.923 277.863,334.923 278.5,341.5C 275.928,335.785 273.928,329.785 272.5,323.5 Z"/></g>
<g><path style="opacity:0.1" fill="#595959" d="M 160.5,297.5 C 160.005,299.482 159.505,301.482 159,303.5C 158.5,325.831 158.333,348.164 158.5,370.5C 158.167,370.5 157.833,370.5 157.5,370.5C 157.333,347.498 157.5,324.498 158,301.5C 158.2,299.68 159.034,298.347 160.5,297.5 Z"/></g>
<g><path style="opacity:0.435" fill="#676767" d="M 121.5,315.5 C 119.76,325.13 116.76,334.297 112.5,343C 111.256,343.456 110.423,342.956 110,341.5C 108.316,337.284 107.149,332.951 106.5,328.5C 108.144,332.409 109.81,336.409 111.5,340.5C 115.243,332.26 118.576,323.927 121.5,315.5 Z"/></g>
<g><path style="opacity:0.494" fill="#7b7b7b" d="M 172.5,317.5 C 171.038,326.433 170.371,335.433 170.5,344.5C 170.5,346.5 170.5,348.5 170.5,350.5C 167.514,339.301 168.181,328.301 172.5,317.5 Z"/></g>
<g><path style="opacity:0.576" fill="#838383" d="M 196.5,324.5 C 196.5,326.833 196.5,329.167 196.5,331.5C 196.767,337.838 197.1,344.171 197.5,350.5C 195.52,345.962 194.52,340.962 194.5,335.5C 194.647,331.604 195.314,327.938 196.5,324.5 Z"/></g>
<g><path style="opacity:0.403" fill="#6e6e6e" d="M 431.5,315.5 C 431.5,315.833 431.5,316.167 431.5,316.5C 429.089,325.657 428.089,334.99 428.5,344.5C 428.167,344.5 427.833,344.5 427.5,344.5C 426.147,335.253 426.814,326.087 429.5,317C 429.836,315.97 430.503,315.47 431.5,315.5 Z"/></g>
<g><path style="opacity:0.294" fill="#606060" d="M 481.5,310.5 C 483.662,314.14 485.162,318.14 486,322.5C 486.667,331.833 486.667,341.167 486,350.5C 485.79,352.058 485.29,353.391 484.5,354.5C 486.619,339.55 485.619,324.884 481.5,310.5 Z"/></g>
<g><path style="opacity:0.871" fill="#cacaca" d="M 253.5,327.5 C 254.492,334.648 254.825,341.981 254.5,349.5C 253.833,349.5 253.167,349.5 252.5,349.5C 253.302,342.196 253.635,334.862 253.5,327.5 Z"/></g>
<g><path style="opacity:0.68" fill="#bababa" d="M 403.5,323.5 C 402.698,330.804 402.365,338.138 402.5,345.5C 401.511,340.025 401.178,334.358 401.5,328.5C 401.5,328.167 401.5,327.833 401.5,327.5C 402.167,326.167 402.833,324.833 403.5,323.5 Z"/></g>
<g><path style="opacity:0.051" fill="#5a5a5a" d="M 134.5,370.5 C 134.667,358.829 134.5,347.162 134,335.5C 132.636,338.334 131.136,341 129.5,343.5C 129.46,340.575 130.293,337.909 132,335.5C 133.356,334.62 134.856,334.286 136.5,334.5C 136.667,346.171 136.5,357.838 136,369.5C 135.617,370.056 135.117,370.389 134.5,370.5 Z"/></g>
<g><path style="opacity:0.129" fill="#404040" d="M 337.5,332.5 C 337.833,332.5 338.167,332.5 338.5,332.5C 337.14,339.915 334.806,346.915 331.5,353.5C 333.215,346.408 335.215,339.408 337.5,332.5 Z"/></g>
<g><path style="opacity:0.133" fill="#535353" d="M 278.5,341.5 C 280.585,343.684 281.585,346.351 281.5,349.5C 279.98,347.11 278.98,344.443 278.5,341.5 Z"/></g>
<g><path style="opacity:0.239" fill="#6d6d6d" d="M 301.5,340.5 C 302.924,342.515 303.59,344.848 303.5,347.5C 301.837,345.562 301.171,343.228 301.5,340.5 Z"/></g>
<g><path style="opacity:0.055" fill="#595959" d="M 92.5,339.5 C 95.4706,343.744 97.4706,348.41 98.5,353.5C 95.9316,349.144 93.9316,344.478 92.5,339.5 Z"/></g>
<g><path style="opacity:0.133" fill="#616161" d="M 401.5,328.5 C 401.178,334.358 401.511,340.025 402.5,345.5C 403.006,350.523 403.673,355.523 404.5,360.5C 400.699,350.066 399.699,339.4 401.5,328.5 Z"/></g>
<g><path style="opacity:0.341" fill="#797979" d="M 128.5,345.5 C 127.958,348.912 126.625,351.912 124.5,354.5C 124.502,350.835 125.835,347.835 128.5,345.5 Z"/></g>
<g><path style="opacity:0.886" fill="#919191" d="M 427.5,344.5 C 427.833,344.5 428.167,344.5 428.5,344.5C 429.222,348.876 430.222,353.209 431.5,357.5C 430.288,356.77 429.288,355.77 428.5,354.5C 427.513,351.232 427.18,347.898 427.5,344.5 Z"/></g>
<g><path style="opacity:0.178" fill="#737373" d="M 92.5,339.5 C 91.735,338.34 90.735,337.34 89.5,336.5C 88.5012,347.48 88.1679,358.48 88.5,369.5C 87.5051,358.012 87.1717,346.345 87.5,334.5C 91.1507,334.162 92.8174,335.828 92.5,339.5 Z"/></g>
<g><path style="opacity:0.322" fill="#888888" d="M 170.5,344.5 C 171.554,352.046 173.554,359.379 176.5,366.5C 173.14,361.763 171.14,356.429 170.5,350.5C 170.5,348.5 170.5,346.5 170.5,344.5 Z"/></g>
<g><path style="opacity:0.58" fill="#767676" d="M 197.5,350.5 C 198.871,352.936 199.871,355.603 200.5,358.5C 198.023,356.584 197.023,353.917 197.5,350.5 Z"/></g>
<g><path style="opacity:0.208" fill="#5f5f5f" d="M 303.5,347.5 C 304.485,350.057 305.485,352.724 306.5,355.5C 307.859,354.376 308.859,353.042 309.5,351.5C 309.736,354.226 308.903,356.559 307,358.5C 304.456,355.339 303.289,351.673 303.5,347.5 Z"/></g>
<g><path style="opacity:0.361" fill="#737373" d="M 98.5,353.5 C 101.659,358.226 103.326,363.559 103.5,369.5C 101.463,364.383 99.7964,359.05 98.5,353.5 Z"/></g>
<g><path style="opacity:0.569" fill="#8a8a8a" d="M 227.5,349.5 C 228.172,352.942 227.172,355.609 224.5,357.5C 225.129,354.603 226.129,351.936 227.5,349.5 Z"/></g>
<g><path style="opacity:0.263" fill="#656565" d="M 281.5,349.5 C 283.806,353.085 285.139,357.085 285.5,361.5C 283.595,357.784 282.261,353.784 281.5,349.5 Z"/></g>
<g><path style="opacity:0.376" fill="#656565" d="M 331.5,353.5 C 330.739,357.784 329.405,361.784 327.5,365.5C 327.857,361.737 328.69,358.07 330,354.5C 330.383,353.944 330.883,353.611 331.5,353.5 Z"/></g>
<g><path style="opacity:0.275" fill="#6a6a6a" d="M 252.5,349.5 C 253.167,349.5 253.833,349.5 254.5,349.5C 253.721,356.713 251.055,363.046 246.5,368.5C 246.687,366.436 247.187,364.436 248,362.5C 251.054,358.769 252.554,354.435 252.5,349.5 Z"/></g>
<g><path style="opacity:0.306" fill="#696969" d="M 484.5,354.5 C 484.405,356.786 483.738,358.786 482.5,360.5C 482.259,358.102 482.926,356.102 484.5,354.5 Z"/></g>
<g><path style="opacity:0.29" fill="#5d5d5d" d="M 224.5,357.5 C 224.573,359.027 223.906,360.027 222.5,360.5C 222.427,358.973 223.094,357.973 224.5,357.5 Z"/></g>
<g><path style="opacity:0.557" fill="#8a8a8a" d="M 123.5,357.5 C 122.992,361.736 121.992,365.736 120.5,369.5C 120.335,366.482 120.502,363.482 121,360.5C 121.377,359.058 122.21,358.058 123.5,357.5 Z"/></g>
<g><path style="opacity:0.129" fill="#474747" d="M 431.5,357.5 C 432.906,357.973 433.573,358.973 433.5,360.5C 432.094,360.027 431.427,359.027 431.5,357.5 Z"/></g>
<g><path style="opacity:0.475" fill="#727272" d="M 458.5,322.5 C 459.268,323.263 459.768,324.263 460,325.5C 460.846,334.553 460.513,343.553 459,352.5C 457.38,358.945 453.547,363.278 447.5,365.5C 450.104,363.4 452.604,361.067 455,358.5C 459.396,346.845 460.563,334.845 458.5,322.5 Z"/></g>
<g><path style="opacity:0.722" fill="#c7c7c7" d="M 66.5,302.5 C 67.663,325.33 67.8297,348.33 67,371.5C 66.7679,372.737 66.2679,373.737 65.5,374.5C 65.5,373.167 65.5,371.833 65.5,370.5C 66.4975,348.006 66.8308,325.339 66.5,302.5 Z"/></g>
<g><path style="opacity:0.169" fill="#646464" d="M 200.5,358.5 C 201.906,358.973 202.573,359.973 202.5,361.5C 201.094,361.027 200.427,360.027 200.5,358.5 Z"/></g>
<g><path style="opacity:0.357" fill="#686868" d="M 222.5,360.5 C 221.57,364.093 219.237,365.759 215.5,365.5C 218.067,364.283 220.4,362.616 222.5,360.5 Z"/></g>
<g><path style="opacity:0.569" fill="#787878" d="M 202.5,361.5 C 204.23,362.026 205.564,363.026 206.5,364.5C 204.368,364.446 203.035,363.446 202.5,361.5 Z"/></g>
<g><path style="opacity:0.62" fill="#969696" d="M 404.5,360.5 C 406.759,361.344 407.759,363.011 407.5,365.5C 406.11,364.101 405.11,362.434 404.5,360.5 Z"/></g>
<g><path style="opacity:0.163" fill="#696969" d="M 206.5,364.5 C 209.455,365.159 212.455,365.492 215.5,365.5C 214.551,366.152 213.385,366.486 212,366.5C 209.779,366.607 207.946,365.94 206.5,364.5 Z"/></g>
<g><path style="opacity:0.182" fill="#6b6b6b" d="M 433.5,360.5 C 437.403,364.136 442.07,365.802 447.5,365.5C 443.405,366.989 439.405,366.489 435.5,364C 434.177,363.184 433.511,362.017 433.5,360.5 Z"/></g>
<g><path style="opacity:0.104" fill="#565656" d="M 327.5,365.5 C 327.198,368.373 326.531,371.039 325.5,373.5C 325.111,370.447 325.777,367.78 327.5,365.5 Z"/></g>
<g><path style="opacity:0.357" fill="#7a7a7a" d="M 407.5,365.5 C 411.103,369.441 414.769,373.441 418.5,377.5C 413.444,374.777 409.777,370.777 407.5,365.5 Z"/></g>
<g><path style="opacity:0.071" fill="#656565" d="M 482.5,360.5 C 481.002,365.322 478.336,369.322 474.5,372.5C 476.812,368.202 479.479,364.202 482.5,360.5 Z"/></g>
<g><path style="opacity:0.247" fill="#6d6d6d" d="M 243.5,371.5 C 242.833,374.167 241.167,375.833 238.5,376.5C 239.833,374.5 241.5,372.833 243.5,371.5 Z"/></g>
<g><path style="opacity:1" fill="#aaaaaa" d="M 474.5,372.5 C 473.5,374.167 472.167,375.5 470.5,376.5C 470.167,376.5 469.833,376.5 469.5,376.5C 469.461,375.417 469.127,374.417 468.5,373.5C 470.542,373.241 472.542,372.908 474.5,372.5 Z"/></g>
<g><path style="opacity:0.012" fill="#5a5a5a" d="M 180.5,372.5 C 182.404,372.738 183.738,373.738 184.5,375.5C 182.596,375.262 181.262,374.262 180.5,372.5 Z"/></g>
<g><path style="opacity:0.686" fill="#656565" d="M 390.5,303.5 C 390.333,326.836 390.5,350.169 391,373.5C 391.791,374.745 392.291,376.078 392.5,377.5C 390.031,376.393 389.031,374.393 389.5,371.5C 389.169,348.661 389.503,325.994 390.5,303.5 Z"/></g>
<g><path style="opacity:0.267" fill="#6a6a6a" d="M 184.5,375.5 C 186.404,375.738 187.738,376.738 188.5,378.5C 186.596,378.262 185.262,377.262 184.5,375.5 Z"/></g>
<g><path style="opacity:1" fill="#a7a7a7" d="M 238.5,376.5 C 236.882,378.316 234.882,379.649 232.5,380.5C 231.5,380.5 230.5,380.5 229.5,380.5C 230.687,379.466 231.52,378.133 232,376.5C 234.081,377.333 236.248,377.333 238.5,376.5 Z"/></g>
<g><path style="opacity:0.8" fill="#909090" d="M 418.5,377.5 C 421.393,377.031 423.393,378.031 424.5,380.5C 422.181,380.008 420.181,379.008 418.5,377.5 Z"/></g>
<g><path style="opacity:0.807" fill="#cdcdcd" d="M 89.5,373.5 C 90.6737,374.514 91.3404,375.847 91.5,377.5C 91.5,378.833 91.5,380.167 91.5,381.5C 81.8104,381.832 72.1437,381.498 62.5,380.5C 62.6236,379.893 62.9569,379.56 63.5,379.5C 72.3178,380.493 81.3178,380.827 90.5,380.5C 90.0074,378.194 89.6741,375.861 89.5,373.5 Z"/></g>
<g><path style="opacity:0.808" fill="#cacaca" d="M 157.5,370.5 C 157.833,370.5 158.167,370.5 158.5,370.5C 159.499,373.162 160.499,375.828 161.5,378.5C 161.5,379.5 161.5,380.5 161.5,381.5C 151.652,381.827 141.986,381.494 132.5,380.5C 141.857,380.832 151.19,380.498 160.5,379.5C 157.923,377.08 156.923,374.08 157.5,370.5 Z"/></g>
<g><path style="opacity:0.812" fill="#c2c2c2" d="M 289.5,369.5 C 290.482,372.962 290.815,376.629 290.5,380.5C 301.5,380.5 312.5,380.5 323.5,380.5C 322.99,377.612 323.656,375.279 325.5,373.5C 325.806,376.385 325.473,379.052 324.5,381.5C 312.833,381.5 301.167,381.5 289.5,381.5C 289.5,377.5 289.5,373.5 289.5,369.5 Z"/></g>
<g><path style="opacity:0.237" fill="#808080" d="M 65.5,370.5 C 65.5,371.833 65.5,373.167 65.5,374.5C 64.8333,376.167 64.1667,377.833 63.5,379.5C 62.9569,379.56 62.6236,379.893 62.5,380.5C 72.1437,381.498 81.8104,381.832 91.5,381.5C 91.5,380.167 91.5,378.833 91.5,377.5C 93.2199,378.751 93.5532,380.251 92.5,382C 82.172,382.5 71.8387,382.666 61.5,382.5C 61.7315,378.058 63.0648,374.058 65.5,370.5 Z"/></g>
<g><path style="opacity:0.235" fill="#7a7a7a" d="M 134.5,371.5 C 134.244,374.598 133.578,377.598 132.5,380.5C 141.986,381.494 151.652,381.827 161.5,381.5C 161.5,380.5 161.5,379.5 161.5,378.5C 162.434,379.568 162.768,380.901 162.5,382.5C 152.161,382.666 141.828,382.5 131.5,382C 130.978,381.439 130.645,380.772 130.5,380C 131.745,377.015 133.078,374.182 134.5,371.5 Z"/></g>
<g><path style="opacity:0.314" fill="#656565" d="M 192.5,380.5 C 199.766,381.933 207.099,382.933 214.5,383.5C 219.796,383.589 224.796,382.589 229.5,380.5C 230.5,380.5 231.5,380.5 232.5,380.5C 219.205,386.891 205.872,386.891 192.5,380.5 Z"/></g>
<g><path style="opacity:0.234" fill="#6e6e6e" d="M 285.5,361.5 C 287.381,363.93 288.715,366.596 289.5,369.5C 289.5,373.5 289.5,377.5 289.5,381.5C 301.167,381.5 312.833,381.5 324.5,381.5C 312.66,382.825 300.66,382.825 288.5,381.5C 287.829,374.787 286.829,368.12 285.5,361.5 Z"/></g>
<g><path style="opacity:0.265" fill="#666666" d="M 363.5,301.5 C 364.663,325.663 364.83,349.997 364,374.5C 362.927,376.547 361.761,378.547 360.5,380.5C 371.146,381.499 381.813,381.832 392.5,381.5C 392.5,380.167 392.5,378.833 392.5,377.5C 394.088,378.635 394.421,379.969 393.5,381.5C 382.186,382.499 370.853,382.832 359.5,382.5C 360.074,378.675 361.241,375.009 363,371.5C 363.5,348.169 363.667,324.836 363.5,301.5 Z"/></g>
<g><path style="opacity:0.335" fill="#5e5e5e" d="M 469.5,376.5 C 469.833,376.5 470.167,376.5 470.5,376.5C 455.947,386.709 440.614,388.043 424.5,380.5C 440.196,385.498 455.196,384.165 469.5,376.5 Z"/></g>
</svg>
