<?xml version="1.0" standalone="no"?>
<!DOCTYPE svg PUBLIC "-//W3C//DTD SVG 20010904//EN"
 "http://www.w3.org/TR/2001/REC-SVG-20010904/DTD/svg10.dtd">
<svg version="1.0" xmlns="http://www.w3.org/2000/svg"
 width="684.000000pt" height="613.000000pt" viewBox="0 0 684.000000 613.000000"
 preserveAspectRatio="xMidYMid meet">

<g transform="translate(0.000000,613.000000) scale(0.100000,-0.100000)"
fill="#000000" stroke="none">
<path d="M3137 5106 c-68 -25 -111 -71 -132 -143 -14 -44 -16 -124 -13 -575
l3 -523 25 -45 c14 -24 45 -58 68 -75 l44 -30 559 -3 c542 -2 560 -2 598 17
50 26 96 82 110 135 9 29 11 195 9 571 l-3 530 -27 45 c-29 50 -66 81 -117 98
-53 18 -1073 16 -1124 -2z m1137 -59 c25 -14 48 -39 63 -67 l24 -44 -3 -536
-3 -537 -28 -36 c-56 -74 -36 -72 -572 -75 -264 -2 -508 0 -542 3 -72 8 -117
34 -147 85 -20 34 -21 48 -21 560 0 289 3 537 7 552 11 37 56 88 93 104 24 10
142 13 560 13 l530 1 39 -23z"/>
<path d="M3130 4825 l0 -65 60 0 60 0 0 65 0 65 -60 0 -60 0 0 -65z"/>
<path d="M4160 4825 l0 -65 65 0 65 0 0 65 0 65 -65 0 -65 0 0 -65z"/>
<path d="M3507 4683 c-4 -3 -7 -129 -7 -280 0 -225 2 -275 14 -279 22 -8 451
260 451 282 0 14 -61 56 -215 151 -118 72 -220 132 -226 132 -6 1 -14 -2 -17
-6z m228 -176 c88 -55 161 -100 162 -101 3 -3 -333 -206 -341 -206 -3 0 -6 95
-6 211 0 165 3 209 13 203 6 -5 84 -53 172 -107z"/>
<path d="M3130 4555 l0 -65 60 0 60 0 0 65 0 65 -60 0 -60 0 0 -65z"/>
<path d="M4160 4555 l0 -65 65 0 65 0 0 65 0 65 -65 0 -65 0 0 -65z"/>
<path d="M3130 4285 l0 -65 60 0 60 0 0 65 0 65 -60 0 -60 0 0 -65z"/>
<path d="M4160 4285 l0 -65 65 0 65 0 0 65 0 65 -65 0 -65 0 0 -65z"/>
<path d="M3130 4010 l0 -60 60 0 60 0 0 60 0 60 -60 0 -60 0 0 -60z"/>
<path d="M4160 4010 l0 -60 65 0 65 0 0 60 0 60 -65 0 -65 0 0 -60z"/>
<path d="M2825 4499 c-181 -44 -194 -49 -232 -82 -46 -41 -73 -99 -73 -162 0
-60 210 -929 237 -983 25 -47 99 -98 157 -106 47 -7 94 3 730 159 278 69 316
85 356 151 44 71 48 174 6 174 -20 0 -22 -5 -22 -54 0 -62 -35 -125 -83 -150
-42 -22 -897 -228 -951 -229 -62 -2 -115 26 -144 77 -28 49 -236 899 -236 964
0 101 47 139 222 182 73 18 137 36 141 40 5 4 7 16 5 27 -3 19 -6 19 -113 -8z"/>
<path d="M2697 2790 c-71 -22 -156 -85 -198 -146 -66 -96 -99 -257 -80 -393
32 -242 147 -363 371 -390 191 -24 345 45 430 195 44 76 60 152 60 284 0 173
-36 276 -127 361 -61 57 -80 68 -168 90 -91 24 -212 24 -288 -1z m209 -186
c124 -59 142 -422 26 -527 -72 -66 -188 -17 -221 92 -19 66 -25 190 -11 268
24 147 107 214 206 167z"/>
<path d="M5029 2792 c-193 -64 -302 -254 -284 -498 19 -272 129 -400 373 -434
236 -32 417 88 477 315 19 75 20 252 0 324 -38 143 -124 244 -243 282 -94 31
-247 36 -323 11z m242 -221 c48 -54 64 -114 64 -236 -1 -123 -22 -200 -69
-249 -30 -32 -39 -36 -86 -36 -47 0 -56 4 -90 38 -52 52 -65 102 -65 252 0
117 2 129 29 183 36 74 73 100 136 94 37 -4 51 -12 81 -46z"/>
<path d="M1320 2785 c0 -3 11 -28 25 -55 l25 -49 0 -349 0 -349 -28 -57 -29
-56 178 0 178 0 -27 52 c-26 51 -27 57 -30 252 -2 110 -1 198 1 196 9 -9 96
-224 103 -252 3 -16 9 -28 13 -28 4 0 8 -8 8 -17 -1 -10 0 -33 1 -50 l2 -33
98 0 97 0 13 67 c11 55 102 295 119 313 2 2 3 -86 1 -196 -3 -195 -4 -201 -30
-252 l-27 -52 178 0 178 0 -29 56 -28 57 0 349 0 349 25 49 c14 27 25 52 25
55 0 3 -87 5 -194 5 l-193 0 -1 -52 c-1 -53 -118 -458 -132 -458 -14 0 -131
405 -132 458 l-1 52 -193 0 c-107 0 -194 -2 -194 -5z"/>
<path d="M3345 2743 c51 -66 266 -717 269 -810 l1 -63 186 0 186 0 6 73 c8
104 218 736 265 794 18 23 32 44 32 47 0 3 -82 6 -181 6 l-181 0 6 -22 c20
-69 17 -87 -55 -368 -40 -159 -75 -287 -77 -285 -2 2 -35 124 -73 272 -67 262
-80 344 -59 384 10 18 5 19 -175 19 l-186 0 36 -47z"/>
<path d="M4322 2783 c50 -100 48 -81 48 -452 l0 -348 -28 -57 -29 -56 194 0
194 0 -19 28 c-46 66 -47 79 -47 442 l0 345 28 53 27 52 -186 0 c-102 0 -184
-3 -182 -7z"/>
</g>
</svg>
